{"title":"Body of Evidence (1993) Uncut Film","uid":6464712,"size":366687941,"categoryP":"video","categoryS":"movies","magnet":"?xt=urn:btih:da277123f06718f240560665a365382c2412247f&amp;dn=Body+of+Evidence+%281993%29+Uncut+Film&amp;tr=udp%3A%2F%2Ftracker.openbittorrent.com%3A80&amp;tr=udp%3A%2F%2Fopen.demonii.com%3A1337&amp;tr=udp%3A%2F%2Ftracker.coppersurfer.tk%3A6969&amp;tr=udp%3A%2F%2Fexodus.desync.com%3A6969","seeders":2,"leechers":0,"uploader":"Robin5555","files":2,"time":1307920325,"description":"------------------------------:TPB IS BENEDICTION TO ME :--------------------------\n\n\nScreen Link :---\n\n &lt;a href=&quot;\nhttp://www.shotpix.com/images/56660443261741311398.jpg&quot; rel=&quot;nofollow&quot; target=&quot;_NEW&quot;&gt;\nhttp://www.shotpix.com/images/56660443261741311398.jpg&lt;/a&gt;\n\n\n\nGeneral Info : ---\n\nFormat                           : Matroska\nFile size                        : 350 MiB\nDuration                         : 1h 40mn\nOverall bit rate                 : 485 Kbps\nMovie name                       : P\nEncoded date                     : UTC 2011-06-08 23:12:20\nWriting application              : mkvmerge v4.6.0 ('Still Crazy After All These Years') built on Mar 10 2011 02:50:32\nWriting library                  : libebml v1.2.0 + libmatroska v1.1.0\n\nVideo\nID                               : 1\nFormat                           : AVC\nFormat/Info                      : Advanced Video Codec\nFormat profile                   : &lt;a class=&quot;__cf_email__&quot; href=&quot;/cdn-cgi/l/email-protection&quot; data-cfemail=&quot;652d0c020d2529514b55&quot;&gt;[email&amp;#160;protected]&lt;/a&gt;&lt;script cf-hash='f9e31' type=&quot;text/javascript&quot;&gt;\n/* &lt;![CDATA[ */!function(){try{var t=&quot;currentScript&quot;in document?document.currentScript:function(){for(var t=document.getElementsByTagName(&quot;script&quot;),e=t.length;e--;)if(t[e].getAttribute(&quot;cf-hash&quot;))return t[e]}();if(t&amp;&amp;t.previousSibling){var e,r,n,i,c=t.previousSibling,a=c.getAttribute(&quot;data-cfemail&quot;);if(a){for(e=&quot;&quot;,r=parseInt(a.substr(0,2),16),n=2;a.length-n;n+=2)i=parseInt(a.substr(n,2),16)^r,e+=String.fromCharCode(i);e=document.createTextNode(e),c.parentNode.replaceChild(e,c)}}}catch(u){}}();/* ]]&gt; */&lt;/script&gt;\nFormat settings, CABAC           : Yes\nFormat settings, ReFrames        : 3 frames\nFormat settings, GOP             : M=4, N=24\nCodec ID                         : V_MPEG4/ISO/AVC\nDuration                         : 1:40:50\nBit rate mode                    : Variable\nBit rate                         : 371 Kbps\nMaximum bit rate                 : 25.0 Mbps\nWidth                            : 592 pixels\nHeight                           : 320 pixels\nDisplay aspect ratio             : 1.850\nFrame rate                       : 23.976 fps\nColor space                      : YUV\nChroma subsampling               : 4:2:0\nBit depth                        : 8 bits\nScan type                        : Progressive\nBits/(Pixel*Frame)               : 0.082\nStream size                      : 262 MiB (75%)\n\nAudio\nID                               : 2\nFormat                           : MPEG Audio\nFormat version                   : Version 1\nFormat profile                   : Layer 3\nMode                             : Joint stereo\nMode extension                   : MS Stereo\nCodec ID                         : A_MPEG/L3\nCodec ID/Hint                    : MP3\nDuration                         : 1:40:50\nBit rate mode                    : Variable\nBit rate                         : 112 Kbps\nMinimum bit rate                 : 32.0 Kbps\nChannel(s)                       : 2 channels\nSampling rate                    : 48.0 KHz\nCompression mode                 : Lossy\nStream size                      : 81.0 MiB (23%)\n\n\n\n\n------------------------------:TPB IS BENEDICTION TO ME :--------------------------\n\n\n\n\n\n","torrent":{"xt":"urn:btih:da277123f06718f240560665a365382c2412247f","amp;dn":"Body+of+Evidence+%281993%29+Uncut+Film","amp;tr":["udp%3A%2F%2Ftracker.openbittorrent.com%3A80","udp%3A%2F%2Fopen.demonii.com%3A1337","udp%3A%2F%2Ftracker.coppersurfer.tk%3A6969","udp%3A%2F%2Fexodus.desync.com%3A6969"],"infoHash":"da277123f06718f240560665a365382c2412247f","infoHashBuffer":{"type":"Buffer","data":[218,39,113,35,240,103,24,242,64,86,6,101,163,101,56,44,36,18,36,127]},"announce":[],"urlList":[]}}